<svg width="459" height="121" viewBox="0 0 459 121" fill="none" xmlns="http://www.w3.org/2000/svg">
<path d="M55.7615 0C68.4201 0 81.1693 7.77602 88.7644 18.8975C94.8405 27.7946 99.7348 43.2805 101.423 49.9111C105.25 49.5193 113.22 50.9884 114.082 60.0381C114.805 67.6325 106.488 70.6168 105.311 70.6172C104.136 70.6172 78.6499 70.7069 78.0955 70.8877C77.553 71.0685 63.6285 71.7926 60.283 79.8398C56.9377 87.887 62.2721 96.0245 68.6013 98.4658C74.9304 100.907 79.632 96.9285 81.2595 89.6953C82.5615 83.9088 82.8268 79.5083 82.7967 78.0312H103.864C103.894 85.8977 101.64 103.728 92.3816 112.119C80.8081 122.608 62.5428 123.602 48.7088 109.949C34.8747 96.296 35.9598 74.5043 45.6345 63.835C53.3744 55.2995 62.6338 50.8153 79.8133 49.9111C77.4322 39.9049 68.963 20.1273 54.1345 21.0674C35.5988 22.2428 23.3019 41.8637 21.4031 68.085C19.5045 94.3041 28.3633 104.251 28.7263 105.608C29.088 106.965 30.7161 113.747 24.4773 117.815C18.2386 121.884 11.3666 117.815 9.46755 114.108L9.42556 114.026C7.41138 110.096 -3.51904 88.7662 1.14919 60.0381C5.85093 31.1043 21.3123 0.000187145 55.7615 0ZM175.16 48.2354C178.23 48.2354 181.033 48.6024 183.809 49.6943C186.316 50.6803 188.778 52.2488 191.388 54.6328V49.6816H204.956V99.6885H191.388V94.7207C190.332 95.8152 189.262 96.9211 187.772 97.8975C185.985 99.0684 183.606 100.052 179.89 100.727L179.13 100.857C173.725 101.735 166.702 99.8492 161.122 95.4258C155.523 90.9872 151.347 83.9719 151.695 74.5762L151.74 73.6572C152.313 64.2613 156.212 57.9458 160.916 53.96C165.753 49.8611 171.428 48.2355 175.16 48.2354ZM431.317 48.2764C435.346 48.0352 445.545 48.2006 452.821 57.4688L453.177 57.9336C456.779 62.7552 458.018 68.1188 458.351 72.3057C458.523 74.4684 458.455 76.3254 458.343 77.6426C458.287 78.301 458.219 78.8257 458.166 79.1875C458.139 79.368 458.116 79.5086 458.099 79.6045C458.091 79.652 458.085 79.6895 458.08 79.7148C458.078 79.7271 458.075 79.7373 458.074 79.7441C458.073 79.7474 458.072 79.7509 458.072 79.7529V79.7559L457.581 79.6582L458.071 79.7568L457.991 80.1582H421.318C421.365 80.327 421.424 80.5287 421.503 80.7549C421.757 81.4833 422.197 82.4694 422.937 83.4902C424.408 85.5188 427.088 87.7233 431.961 88.2939L432.416 88.3428C437.066 88.795 440.157 87.6562 442.087 86.415C443.087 85.7718 443.783 85.0947 444.227 84.584C444.449 84.3289 444.608 84.1156 444.71 83.9688C444.76 83.8957 444.796 83.8385 444.819 83.8018C444.83 83.7836 444.839 83.7698 444.844 83.7617C444.846 83.7581 444.848 83.7552 444.848 83.7539V83.7529L445.096 83.3115L445.535 83.5654L455.843 89.5332L456.285 89.79L456.018 90.2266V90.2275C456.018 90.2281 456.017 90.2295 456.016 90.2305C456.015 90.2322 456.013 90.2345 456.011 90.2373C456.008 90.2434 456.003 90.2527 455.996 90.2637C455.982 90.2861 455.96 90.319 455.933 90.3604C455.879 90.4432 455.798 90.5624 455.691 90.7129C455.477 91.0143 455.158 91.4417 454.728 91.9512C453.87 92.9698 452.572 94.3223 450.808 95.665C447.388 98.2693 442.216 100.837 435.118 100.869L434.425 100.864C427.017 100.727 420.247 98.6226 415.265 94.2881C410.43 90.0806 407.327 83.8135 406.929 75.3438L406.899 74.5176C406.678 65.9337 411.222 57.6509 416.689 53.666L417.196 53.3037C422.428 49.6446 427.286 48.5956 430.596 48.3271L431.317 48.2764ZM288.86 50.0918H299.982V62.208H288.86V83.9082C288.86 83.9082 288.951 85.4453 290.307 86.5303C291.664 87.6152 293.201 87.7061 293.201 87.7061L299.982 87.6152V98.918C299.982 98.918 297.902 99.4605 293.562 99.3701C291.453 99.3262 284.972 99.8219 280.361 95.5723C276.386 92.1389 276.293 84.372 276.293 84.3604V62.2979H267.703V50.0918H276.202V40.2363L288.86 36.3486V50.0918ZM225.567 99.0986H212.909V50.0918H225.567V99.0986ZM320.326 99.0986H307.668V50.0918H320.326V99.0986ZM382.805 48.7354C395.554 48.7355 400.799 58.4106 401.251 67.7236V99.0986H388.592V68.8086C388.592 65.3727 386.245 60.3994 380.454 60.3994C373.221 60.3996 371.322 66.9091 371.322 69.3506V99.0986H358.664V68.7178C358.664 67.4513 357.953 60.3994 350.435 60.3994C342.388 60.3994 341.304 68.2653 341.303 70.2549V99.0986H328.554L328.644 50.0918H341.303V55.0645C342.931 52.9847 346.186 48.7354 354.775 48.7354C363.727 48.7353 365.807 53.347 368.248 55.6074C370.147 53.347 373.312 48.7354 382.805 48.7354ZM252.874 51.1768C257.278 48.75 261.325 49.0925 261.373 49.0967V63.1123C261.316 63.1071 254.576 62.4932 250.795 65.7344C247.003 68.9841 246.456 74.2162 246.454 74.2334V99.0078H233.976V50.0918H246.545V58.0488C246.545 58.0488 248.443 53.6181 252.874 51.1768ZM183.56 61.3096C178.953 59.6143 173.538 60.2192 170.135 62.7383L169.811 62.9883C165.194 66.7194 163.744 71.5758 164.181 75.9824C164.616 80.3617 166.919 84.3267 169.845 86.3057L170.306 86.6064C175.088 89.6222 180.495 89.7196 184.761 87.5693C189.171 85.3465 192.327 80.7413 192.327 74.5889C192.327 67.3579 188.364 63.0776 183.56 61.3096ZM432.923 59.7188C427.362 59.7189 424.1 62.2552 422.245 64.8076C421.323 66.0755 420.752 67.3413 420.411 68.2891C420.24 68.7633 420.127 69.161 420.055 69.4414C420.02 69.5813 419.995 69.693 419.978 69.7705C419.97 69.809 419.964 69.8401 419.96 69.8613C419.958 69.8714 419.956 69.8798 419.955 69.8857C419.954 69.8886 419.953 69.8917 419.953 69.8936V69.8965C419.953 69.8969 419.967 69.9003 420.445 69.9844L419.953 69.8975L419.849 70.4844H445.935L445.836 69.9004L445.344 69.9844C445.783 69.9097 445.831 69.9006 445.836 69.8994V69.8965C445.835 69.8946 445.834 69.8916 445.834 69.8887C445.833 69.8826 445.832 69.8736 445.83 69.8633C445.826 69.842 445.819 69.8117 445.811 69.7734C445.795 69.6958 445.771 69.5835 445.736 69.4434C445.666 69.1629 445.555 68.7654 445.387 68.291C445.052 67.343 444.488 66.0769 443.574 64.8086C441.733 62.2549 438.484 59.7188 432.923 59.7188ZM219.148 28.5723C223.493 28.5725 227.014 32.0942 227.014 36.4385C227.014 40.7829 223.493 44.3045 219.148 44.3047C214.804 44.3047 211.281 40.783 211.281 36.4385C211.281 32.094 214.804 28.5723 219.148 28.5723ZM313.906 28.5723C318.25 28.5723 321.772 32.094 321.772 36.4385C321.772 40.783 318.251 44.3047 313.906 44.3047C309.562 44.3046 306.04 40.7829 306.04 36.4385C306.04 32.0941 309.562 28.5724 313.906 28.5723Z" fill="#00A39D"/>
</svg>
