<svg width="20" height="20" viewBox="0 0 20 20" fill="none" xmlns="http://www.w3.org/2000/svg">
<g clip-path="url(#clip0_16_143)">
<path fill-rule="evenodd" clip-rule="evenodd" d="M13.7013 15.4562C14.0578 15.0763 14.286 14.594 14.3538 14.0775L18.2413 15.805C18.4315 15.8898 18.64 15.9256 18.8477 15.9094C19.0554 15.8931 19.2557 15.8252 19.4304 15.7118C19.6052 15.5984 19.7488 15.4431 19.8483 15.2601C19.9478 15.077 19.9999 14.872 20 14.6637V5.33622C19.9998 5.12806 19.9477 4.92325 19.8483 4.74036C19.7489 4.55748 19.6054 4.40231 19.4308 4.28895C19.2562 4.17559 19.0561 4.10761 18.8486 4.0912C18.6411 4.07479 18.4327 4.11046 18.2425 4.19497L14.3538 5.92247C14.2743 5.32133 13.9791 4.76955 13.5231 4.36988C13.0671 3.97021 12.4814 3.7499 11.875 3.74997H4.96552L6.18689 5.42009H11.8961C12.1331 5.50347 12.3395 5.65632 12.4883 5.85871C12.6372 6.06111 12.7216 6.30365 12.7305 6.55472V13.7483C12.6162 13.9066 12.4663 14.0358 12.293 14.1257L13.3979 15.6267L13.7013 15.4562ZM2.51152 5.64947C2.25844 5.73715 2.04026 5.90388 1.88919 6.12505C1.73812 6.34621 1.66215 6.61008 1.67252 6.87772V14.3777C1.76113 14.6315 1.92921 14.85 2.15182 15.0007C2.37442 15.1515 2.63969 15.2264 2.90827 15.2145H8.92014L10.0856 16.8742H2.50452C1.84148 16.8742 1.20559 16.6108 0.73675 16.142C0.267909 15.6731 0.0045166 15.0373 0.0045166 14.3742V6.24997C0.0045166 5.40622 0.591642 4.54809 1.36889 4.10747L2.51152 5.64947ZM18.3805 14.465L14.38 12.3696V7.61035L18.3799 6.09347V14.4673L18.3805 14.465ZM12.8178 19.4416L0.579142 1.69847C0.154642 0.757969 1.12639 -0.00403091 2.03127 0.736344L14.4036 18.2083C14.8125 19.368 13.8691 20.0178 12.8178 19.4416Z" fill="white"/>
</g>
<defs>
<clipPath id="clip0_16_143">
<rect width="20" height="20" fill="white"/>
</clipPath>
</defs>
</svg>
