<svg width="20" height="14" viewBox="0 0 20 14" fill="none" xmlns="http://www.w3.org/2000/svg">
<path fill-rule="evenodd" clip-rule="evenodd" d="M0 3.25C0 2.58696 0.263392 1.95107 0.732233 1.48223C1.20107 1.01339 1.83696 0.75 2.5 0.75H11.875C12.4814 0.749929 13.0671 0.970241 13.5231 1.36991C13.9791 1.76958 14.2743 2.32136 14.3537 2.9225L18.2413 1.195C18.4315 1.11021 18.64 1.07433 18.8477 1.09061C19.0554 1.10688 19.2557 1.17481 19.4304 1.2882C19.6052 1.4016 19.7488 1.55687 19.8483 1.7399C19.9478 1.92294 19.9999 2.12793 20 2.33625V11.6637C19.9998 11.8719 19.9477 12.0767 19.8483 12.2596C19.7488 12.4425 19.6053 12.5977 19.4308 12.711C19.2562 12.8244 19.0561 12.8924 18.8486 12.9088C18.641 12.9252 18.4327 12.8895 18.2425 12.805L14.3537 11.0775C14.2743 11.6786 13.9791 12.2304 13.5231 12.6301C13.0671 13.0298 12.4814 13.2501 11.875 13.25H2.5C1.83696 13.25 1.20107 12.9866 0.732233 12.5178C0.263392 12.0489 0 11.413 0 10.75V3.25ZM14.375 9.5L18.4375 11.0625V2.9375L14.375 4.60375V9.4975V9.5ZM2.5 2.41625C2.30353 2.47596 2.1248 2.58315 1.9796 2.72835C1.8344 2.87355 1.72721 3.05228 1.6675 3.24875V10.7487C1.72721 10.9452 1.8344 11.124 1.9796 11.2691C2.1248 11.4143 2.30353 11.5215 2.5 11.5812H11.875C12.1024 11.5317 12.3114 11.4197 12.4786 11.2579C12.6458 11.096 12.7644 10.8907 12.8212 10.665V3.25C12.7521 3.04097 12.629 2.8539 12.4644 2.70771C12.2998 2.56152 12.0995 2.46141 11.8837 2.4175L2.5 2.41625Z" fill="white"/>
</svg>
