<svg width="37" height="17" viewBox="0 0 37 17" fill="none" xmlns="http://www.w3.org/2000/svg">
<path d="M11.4 11.6608V10.5511C11.4 10.5511 11.4 7.91334 18.5 7.91334C25.6 7.91334 25.6 10.5511 25.6 10.5511V11.25C25.6 12.9715 26.8828 14.4346 28.6182 14.6925L32.1682 15.2201C34.3161 15.5392 36.25 13.9081 36.25 11.7772V7.95294C36.25 6.89634 35.9238 5.85756 35.1323 5.14082C33.1075 3.30718 28.1219 0 18.5 0C8.29627 0 3.30648 4.64884 1.53247 6.82002C0.971344 7.50672 0.75 8.3745 0.75 9.25452V12.7157C0.75 15.0521 3.04971 16.7256 5.32945 16.0481L8.87945 14.9931C10.3763 14.5481 11.4 13.1949 11.4 11.6608Z" fill="white"/>
</svg>
