<svg width="20" height="20" viewBox="0 0 20 20" fill="none" xmlns="http://www.w3.org/2000/svg">
<path fill-rule="evenodd" clip-rule="evenodd" d="M12.0833 8.75004V4.58337C12.0833 3.43278 11.1506 2.50004 10 2.50004C8.84942 2.50004 7.91667 3.43278 7.91667 4.58337V8.75004C7.91667 9.90062 8.84942 10.8334 10 10.8334C11.1506 10.8334 12.0833 9.90062 12.0833 8.75004ZM10 0.833374C7.92893 0.833374 6.25 2.51231 6.25 4.58337V8.75004C6.25 10.8211 7.92893 12.5 10 12.5C12.0711 12.5 13.75 10.8211 13.75 8.75004V4.58337C13.75 2.51231 12.0711 0.833374 10 0.833374Z" fill="white"/>
<path d="M10 14.1666C4.58335 14.1666 5.00002 9.99996 5.00002 9.99996C5.00002 9.99996 5.00003 9.16663 4.1667 9.16663C3.33337 9.16663 3.33335 9.99996 3.33335 9.99996C3.33335 9.99996 2.95014 15.3651 9.16669 15.8047V18.3333C9.16669 18.7935 9.53978 19.1666 10 19.1666C10.4603 19.1666 10.8334 18.7935 10.8334 18.3333V15.8047C17.0499 15.3651 16.6667 9.99996 16.6667 9.99996C16.6667 9.99996 16.6667 9.16663 15.8334 9.16663C15 9.16663 15 9.99996 15 9.99996C15 9.99996 15.4167 14.1666 10 14.1666Z" fill="white"/>
</svg>
