<svg width="20" height="20" viewBox="0 0 20 20" fill="none" xmlns="http://www.w3.org/2000/svg">
<path d="M12.0834 4.58337V8.75004C12.0834 8.99479 12.0412 9.22962 11.9636 9.44779L13.2084 10.6925C13.5521 10.126 13.75 9.46112 13.75 8.75004V4.58337C13.75 2.51231 12.0711 0.833374 10 0.833374C8.19289 0.833374 6.68431 2.11165 6.32916 3.81333L7.91669 5.40087V4.58337C7.91669 3.43278 8.84944 2.50004 10 2.50004C11.1506 2.50004 12.0834 3.43278 12.0834 4.58337Z" fill="#FF5353"/>
<path d="M10.0452 12.4997L6.25 8.70447V8.74997C6.25 10.8211 7.92893 12.5 10 12.5C10.0151 12.5 10.0302 12.4999 10.0452 12.4997Z" fill="#FF5353"/>
<path d="M11.574 14.0285L12.9484 15.4029C12.3458 15.6056 11.6459 15.7473 10.8334 15.8047V18.3333C10.8334 18.7935 10.4603 19.1666 10 19.1666C9.53978 19.1666 9.16669 18.7935 9.16669 18.3333V15.8047C2.95014 15.3651 3.33335 9.99996 3.33335 9.99996C3.33335 9.99996 3.33337 9.16663 4.1667 9.16663C5.00004 9.16663 5.00002 9.99996 5.00002 9.99996C5.00002 9.99996 4.58335 14.1666 10 14.1666C10.5915 14.1666 11.1134 14.117 11.574 14.0285Z" fill="#FF5353"/>
<path d="M15.7835 13.2676L14.5551 12.0392C15.1012 11.0125 15 9.99996 15 9.99996C15 9.99996 15 9.16663 15.8333 9.16663C16.6666 9.16663 16.6666 9.99996 16.6666 9.99996C16.6666 9.99996 16.7882 11.7022 15.7835 13.2676Z" fill="#FF5353"/>
<path d="M1.67321 2.85166C1.34778 2.52623 1.34778 1.99859 1.67321 1.67315C1.99865 1.34772 2.52629 1.34772 2.85172 1.67315L18.3336 17.1551C18.6591 17.4805 18.6591 18.0082 18.3336 18.3336C18.0082 18.659 17.4806 18.659 17.1551 18.3336L1.67321 2.85166Z" fill="#FF5353"/>
</svg>
