<svg width="39" height="36" viewBox="0 0 39 36" fill="none" xmlns="http://www.w3.org/2000/svg">
<path d="M9.63889 11.925H29.3611M9.63889 20.025H29.3611M37.25 34.2L30.6937 30.834C30.1967 30.5789 29.9482 30.4513 29.6877 30.3614C29.4566 30.2816 29.2185 30.2239 28.9769 30.1891C28.7048 30.15 28.4269 30.15 27.8713 30.15H8.06111C5.852 30.15 4.74746 30.15 3.90371 29.7085C3.1615 29.3203 2.55808 28.7007 2.17992 27.9387C1.75 27.0724 1.75 25.9382 1.75 23.67V8.27999C1.75 6.01176 1.75 4.87766 2.17992 4.01133C2.55808 3.24926 3.1615 2.62969 3.90371 2.24142C4.74746 1.79999 5.85202 1.79999 8.06111 1.79999H30.9389C33.148 1.79999 34.2526 1.79999 35.0963 2.24142C35.8385 2.62969 36.442 3.24926 36.8201 4.01133C37.25 4.87766 37.25 6.01179 37.25 8.27999V34.2Z" stroke="white" stroke-width="3" stroke-linecap="round" stroke-linejoin="round"/>
</svg>
