<svg width="32" height="32" viewBox="2 0 32 30" fill="none" xmlns="http://www.w3.org/2000/svg">
<path d="M29.1734 6.30677L21.6 27.5334C21.4189 28.0606 21.0771 28.5177 20.6227 28.8406C20.1683 29.1635 19.6241 29.3358 19.0667 29.3334C18.5157 29.3397 17.9763 29.1751 17.5227 28.8624C17.0691 28.5496 16.7234 28.104 16.5334 27.5868L13.7067 20.2268L15.76 18.1734L19.08 14.8534C19.3311 14.6024 19.4722 14.2618 19.4722 13.9068C19.4722 13.5517 19.3311 13.2112 19.08 12.9601C18.829 12.709 18.4884 12.568 18.1334 12.568C17.7783 12.568 17.4378 12.709 17.1867 12.9601L13.8667 16.2801L11.76 18.3468L4.41338 15.5068C3.86476 15.3415 3.38395 15.0039 3.04219 14.544C2.70042 14.0842 2.51587 13.5264 2.51587 12.9534C2.51587 12.3805 2.70042 11.8227 3.04219 11.3628C3.38395 10.9029 3.86476 10.5654 4.41338 10.4001L25.6934 2.82677C26.18 2.62684 26.7149 2.57532 27.2308 2.6787C27.7466 2.78208 28.2204 3.03574 28.5924 3.40776C28.9644 3.77977 29.2181 4.25352 29.3214 4.76937C29.4248 5.28523 29.3733 5.82013 29.1734 6.30677Z" fill="#8E8E8E"/>
</svg>
