<svg width="31" height="31" viewBox="0 0 31 31" fill="none" xmlns="http://www.w3.org/2000/svg">
<path d="M10.0361 15.2042C9.95424 15.2309 9.87003 15.2497 9.7846 15.2604C9.80987 15.4226 9.82616 15.586 9.83342 15.75C9.82616 15.9125 9.80987 16.0745 9.7846 16.2351C9.87166 16.2478 9.95734 16.2686 10.0405 16.2973L22.998 22.384C23.1302 22.454 23.2509 22.5438 23.356 22.6503C24.1331 22.0186 25.1028 21.6716 26.1042 21.6666C27.0415 21.6553 27.9589 21.9374 28.7278 22.4735C29.4967 23.0096 30.0787 23.7727 30.3922 24.6561C30.7057 25.5395 30.735 26.4988 30.476 27.3996C30.2171 28.3005 29.6828 29.0978 28.9481 29.6798C28.2133 30.2618 27.3149 30.5995 26.3787 30.6454C25.4425 30.6913 24.5154 30.4432 23.7272 29.9359C22.939 29.4285 22.3293 28.6874 21.9834 27.8162C21.6375 26.945 21.5728 25.9874 21.7984 25.0776C21.7777 25.0687 21.7555 25.0776 21.7333 25.0628L8.78173 18.976C8.71145 18.9326 8.64513 18.8831 8.58352 18.8281C7.96978 19.4654 7.17955 19.9047 6.3143 20.0896C5.44905 20.2744 4.5483 20.1964 3.72772 19.8655C2.90715 19.5346 2.20422 18.966 1.70921 18.2327C1.2142 17.4993 0.949707 16.6348 0.949707 15.75C0.949707 14.8652 1.2142 14.0006 1.70921 13.2673C2.20422 12.534 2.90715 11.9653 3.72772 11.6345C4.5483 11.3036 5.44905 11.2256 6.3143 11.4104C7.17955 11.5953 7.96978 12.0345 8.58352 12.6718C8.64487 12.6171 8.71068 12.5677 8.78025 12.5239L21.7333 6.43123C21.754 6.42088 21.7762 6.43123 21.7984 6.41496C21.7143 6.08167 21.6701 5.73955 21.6667 5.39581C21.6667 4.51816 21.927 3.66022 22.4146 2.93047C22.9022 2.20073 23.5952 1.63196 24.4061 1.2961C25.2169 0.960236 26.1092 0.872358 26.97 1.04358C27.8308 1.2148 28.6214 1.63743 29.242 2.25803C29.8626 2.87862 30.2853 3.66931 30.4565 4.5301C30.6277 5.39089 30.5398 6.28313 30.204 7.09397C29.8681 7.90482 29.2993 8.59786 28.5696 9.08546C27.8398 9.57306 26.9819 9.83331 26.1042 9.83331C25.1008 9.82973 24.1288 9.48259 23.35 8.84967C23.2444 8.9555 23.1238 9.04521 22.9921 9.11592L10.0361 15.2042Z" fill="white"/>
</svg>
